<?xml version="1.0" encoding="utf-8"?>
<!-- Generator: Adobe Illustrator 16.0.0, SVG Export Plug-In . SVG Version: 6.00 Build 0)  -->
<!DOCTYPE svg PUBLIC "-//W3C//DTD SVG 1.1//EN" "http://www.w3.org/Graphics/SVG/1.1/DTD/svg11.dtd">
<svg version="1.1" id="Layer_1" xmlns="http://www.w3.org/2000/svg" xmlns:xlink="http://www.w3.org/1999/xlink" x="0px" y="0px"
	 width="2029.13px" height="283.246px" viewBox="118.077 102.071 2029.13 283.246"
	 enable-background="new 118.077 102.071 2029.13 283.246" xml:space="preserve">
<path fill="#FFFFFF" d="M250.619,305.328"/>
<path fill="#FFFFFF" d="M278.923,288.604"/>
<path fill="#FFFFFF" d="M281.151,286.376"/>
<path fill="#FFFFFF" d="M334.655,139.036v-36.383h44.157v36.383H334.655z M378.812,163.914v160.77h-44.157v-160.77H378.812z"/>
<path fill="#FFFFFF" d="M565.543,336.498c-1.768,8.282-5.554,16.013-11.354,23.169c-5.799,7.148-14.195,13.214-25.188,18.191
	c-10.991,4.977-25.707,7.458-44.15,7.458c-7.884,0-15.912-0.987-24.105-2.95c-8.192-1.976-15.651-5.027-22.389-9.175
	s-12.334-9.484-16.792-16.013c-4.458-6.536-6.99-14.36-7.617-23.479h43.849c2.063,8.289,6.109,14.044,12.131,17.261
	c6.002,3.21,12.947,4.812,20.832,4.812c12.436,0,21.503-3.723,27.208-11.194c5.698-7.459,8.445-16.895,8.236-28.291V295.14h-0.62
	c-4.773,8.498-11.562,14.772-20.369,18.817c-8.814,4.04-18.091,6.061-27.828,6.061c-12.03,0-22.39-2.122-31.096-6.377
	c-8.707-4.249-15.86-10.054-21.459-17.413c-5.597-7.355-9.687-15.961-12.283-25.807s-3.888-20.262-3.888-31.254
	c0-10.359,1.501-20.369,4.509-30.006c3.006-9.643,7.414-18.141,13.221-25.498c5.799-7.358,13.005-13.222,21.609-17.571
	c8.6-4.35,18.502-6.527,29.696-6.527c10.575,0,19.851,1.974,27.829,5.906c7.979,3.938,14.664,10.568,20.061,19.901h0.619v-21.458
	h41.98v150.5C568.183,320.846,567.303,328.204,565.543,336.498z M505.062,283.008c4.768-2.481,8.706-5.8,11.814-9.94
	c3.108-4.154,5.438-8.866,6.998-14.152c1.558-5.287,2.33-10.833,2.33-16.634c0-6.636-0.621-12.91-1.861-18.817
	c-1.241-5.908-3.318-11.144-6.219-15.703c-2.906-4.56-6.743-8.193-11.511-10.884c-4.773-2.691-10.776-4.046-18.032-4.046
	c-6.219,0-11.562,1.248-16.021,3.736c-4.458,2.488-8.188,5.863-11.193,10.105c-3.001,4.255-5.18,9.124-6.527,14.614
	c-1.35,5.495-2.021,11.251-2.021,17.261c0,5.806,0.57,11.562,1.709,17.261c1.141,5.698,3.116,10.827,5.914,15.385
	c2.799,4.564,6.472,8.295,11.03,11.194c4.564,2.912,10.271,4.356,17.109,4.356C494.799,286.743,500.295,285.503,505.062,283.008z"/>
<path fill="#FFFFFF" d="M734.234,102.653v80.857h0.62c5.389-8.294,12.696-14.361,21.928-18.198
	c9.218-3.83,18.806-5.748,28.759-5.748c8.086,0,16.063,1.657,23.946,4.977c7.876,3.317,14.976,8.395,21.3,15.233
	c6.319,6.839,11.448,15.602,15.393,26.277c3.932,10.675,5.908,23.376,5.908,38.093c0,14.722-1.977,27.416-5.908,38.092
	c-3.944,10.675-9.073,19.438-15.393,26.276c-6.326,6.838-13.424,11.923-21.3,15.234c-7.882,3.318-15.86,4.977-23.946,4.977
	c-11.815,0-22.391-1.86-31.717-5.597c-9.326-3.729-16.38-10.056-21.147-18.971h-0.62v20.527h-41.979V102.653L734.234,102.653
	L734.234,102.653z M805.752,224.862c-1.457-6.217-3.729-11.708-6.839-16.48c-3.108-4.768-6.997-8.548-11.663-11.347
	c-4.659-2.798-10.313-4.204-16.943-4.204c-6.435,0-12.024,1.406-16.792,4.204c-4.774,2.799-8.712,6.579-11.814,11.347
	c-3.116,4.773-5.396,10.264-6.845,16.48c-1.45,6.219-2.178,12.753-2.178,19.591c0,6.636,0.728,13.062,2.178,19.28
	s3.729,11.715,6.845,16.482c3.103,4.768,7.041,8.547,11.814,11.352c4.768,2.8,10.358,4.192,16.792,4.192
	c6.629,0,12.283-1.393,16.943-4.192c4.666-2.805,8.555-6.584,11.663-11.352s5.382-10.264,6.839-16.482
	c1.449-6.217,2.178-12.645,2.178-19.28C807.929,237.615,807.201,231.082,805.752,224.862z"/>
<path fill="#FFFFFF" d="M878.199,213.358c0.627-10.365,3.217-18.97,7.775-25.809c4.56-6.838,10.365-12.333,17.413-16.487
	c7.047-4.142,14.98-7.092,23.795-8.851c8.807-1.76,17.666-2.646,26.581-2.646c8.086,0,16.272,0.569,24.566,1.708
	c8.295,1.14,15.861,3.369,22.706,6.686c6.839,3.318,12.437,7.928,16.792,13.842c4.352,5.9,6.528,13.727,6.528,23.471v83.648
	c0,7.257,0.411,14.202,1.247,20.833c0.824,6.635,2.272,11.612,4.351,14.93H985.17c-0.824-2.494-1.502-5.027-2.015-7.624
	c-0.519-2.589-0.886-5.229-1.089-7.928c-7.053,7.256-15.348,12.335-24.884,15.235c-9.535,2.898-19.274,4.354-29.229,4.354
	c-7.674,0-14.821-0.931-21.452-2.799c-6.635-1.86-12.435-4.761-17.412-8.705c-4.977-3.932-8.864-8.909-11.663-14.924
	c-2.8-6.015-4.198-13.17-4.198-21.458c0-9.124,1.602-16.634,4.818-22.547c3.217-5.902,7.357-10.62,12.441-14.146
	c5.072-3.521,10.878-6.166,17.406-7.927c6.535-1.761,13.113-3.167,19.755-4.206c6.63-1.031,13.158-1.861,19.591-2.482
	c6.42-0.626,12.119-1.557,17.096-2.798c4.978-1.248,8.916-3.058,11.815-5.445c2.899-2.381,4.249-5.851,4.046-10.416
	c0-4.768-0.779-8.555-2.336-11.353c-1.545-2.799-3.623-4.977-6.218-6.528c-2.59-1.551-5.599-2.589-9.017-3.109
	c-3.42-0.519-7.104-0.777-11.037-0.777c-8.705,0-15.543,1.867-20.521,5.597c-4.977,3.729-7.883,9.946-8.712,18.66H878.199z
	 M980.198,246.006c-1.869,1.664-4.198,2.956-6.998,3.888c-2.798,0.938-5.806,1.709-9.016,2.33c-3.216,0.62-6.585,1.146-10.106,1.558
	c-3.526,0.418-7.054,0.937-10.573,1.558c-3.317,0.621-6.585,1.456-9.796,2.488c-3.216,1.039-6.014,2.438-8.396,4.197
	c-2.387,1.761-4.306,3.99-5.755,6.688c-1.45,2.697-2.179,6.117-2.179,10.257c0,3.946,0.729,7.257,2.179,9.954
	c1.45,2.698,3.419,4.826,5.914,6.371c2.482,1.557,5.382,2.646,8.7,3.268c3.317,0.619,6.736,0.937,10.27,0.937
	c8.7,0,15.437-1.45,20.21-4.356c4.762-2.898,8.283-6.377,10.575-10.422c2.273-4.039,3.672-8.129,4.191-12.277
	c0.52-4.147,0.779-7.465,0.779-9.946V246.006L980.198,246.006z"/>
<path fill="#FFFFFF" d="M1100.533,163.914v22.389h0.938c5.597-9.327,12.847-16.115,21.768-20.37
	c8.903-4.243,18.033-6.369,27.36-6.369c11.82,0,21.509,1.608,29.074,4.818c7.566,3.216,13.531,7.673,17.882,13.371
	c4.35,5.705,7.407,12.646,9.176,20.833c1.759,8.193,2.639,17.26,2.639,27.208v98.89h-44.149v-90.796
	c0-13.273-2.078-23.176-6.226-29.705c-4.146-6.528-11.505-9.795-22.078-9.795c-12.024,0-20.73,3.577-26.118,10.726
	c-5.389,7.155-8.086,18.92-8.086,35.294v84.275h-44.158v-160.77H1100.533z"/>
<path fill="#FFFFFF" d="M1394.858,336.498c-1.767,8.282-5.552,16.013-11.346,23.169c-5.812,7.148-14.208,13.214-25.194,18.191
	c-10.992,4.977-25.707,7.458-44.15,7.458c-7.885,0-15.918-0.987-24.104-2.95c-8.188-1.976-15.651-5.027-22.39-9.175
	c-6.737-4.147-12.334-9.484-16.785-16.013c-4.464-6.536-7.004-14.36-7.624-23.479h43.848c2.07,8.289,6.11,14.044,12.126,17.261
	c6.008,3.21,12.954,4.812,20.831,4.812c12.437,0,21.502-3.723,27.214-11.194c5.698-7.459,8.446-16.895,8.237-28.291V295.14h-0.627
	c-4.761,8.498-11.555,14.772-20.363,18.817c-8.812,4.04-18.083,6.061-27.827,6.061c-12.023,0-22.396-2.122-31.096-6.377
	c-8.712-4.249-15.859-10.054-21.458-17.413c-5.598-7.355-9.692-15.961-12.276-25.807c-2.604-9.846-3.896-20.262-3.896-31.254
	c0-10.359,1.501-20.369,4.517-30.006c3-9.643,7.406-18.141,13.207-25.498c5.8-7.358,13.006-13.222,21.615-17.571
	c8.601-4.35,18.502-6.527,29.696-6.527c10.574,0,19.844,1.974,27.835,5.906c7.979,3.938,14.657,10.568,20.046,19.901h0.627v-21.458
	h41.979v150.5C1397.5,320.846,1396.619,328.204,1394.858,336.498z M1334.379,283.008c4.762-2.481,8.699-5.8,11.814-9.94
	c3.108-4.154,5.438-8.866,6.99-14.152c1.558-5.287,2.336-10.833,2.336-16.634c0-6.636-0.627-12.91-1.867-18.817
	c-1.24-5.908-3.318-11.144-6.218-15.703c-2.901-4.56-6.737-8.193-11.505-10.884c-4.77-2.691-10.783-4.046-18.033-4.046
	c-6.225,0-11.562,1.248-16.013,3.736c-4.465,2.488-8.194,5.863-11.194,10.105c-3.014,4.255-5.193,9.124-6.535,14.614
	c-1.354,5.495-2.025,11.251-2.025,17.261c0,5.806,0.576,11.562,1.716,17.261c1.134,5.698,3.108,10.827,5.907,15.385
	c2.8,4.564,6.479,8.295,11.043,11.194c4.56,2.912,10.258,4.356,17.103,4.356C1324.107,286.743,1329.604,285.503,1334.379,283.008z"
	/>
<path fill="#FFFFFF" d="M1633.516,304.155c-5.187,8.714-11.979,14.981-20.368,18.817c-8.396,3.83-17.882,5.749-28.455,5.749
	c-12.023,0-22.599-2.33-31.717-6.996c-9.124-4.667-16.641-10.985-22.54-18.963c-5.915-7.978-10.372-17.16-13.374-27.523
	c-3.014-10.365-4.508-21.143-4.508-32.336c0-10.776,1.494-21.199,4.508-31.254c3.002-10.055,7.459-18.919,13.374-26.587
	c5.899-7.667,13.309-13.834,22.224-18.5c8.916-4.667,19.287-6.996,31.103-6.996c9.536,0,18.603,2.013,27.2,6.058
	c8.613,4.046,15.399,10.011,20.377,17.888h0.619v-80.857h44.16v222.03h-41.98v-20.527h-0.622V304.155z M1631.643,224.704
	c-1.241-6.11-3.369-11.498-6.37-16.164c-3.008-4.666-6.896-8.447-11.663-11.353c-4.769-2.901-10.776-4.356-18.032-4.356
	c-7.257,0-13.373,1.456-18.351,4.356c-4.978,2.906-8.966,6.736-11.967,11.505c-3.015,4.767-5.187,10.212-6.534,16.329
	c-1.35,6.117-2.021,12.487-2.021,19.123c0,6.219,0.729,12.436,2.18,18.653c1.449,6.224,3.779,11.771,6.996,16.64
	c3.211,4.877,7.256,8.814,12.125,11.814c4.869,3.009,10.731,4.509,17.57,4.509c7.257,0,13.316-1.442,18.191-4.355
	c4.867-2.9,8.756-6.78,11.662-11.656c2.899-4.87,4.972-10.417,6.213-16.633c1.254-6.226,1.873-12.646,1.873-19.287
	C1633.516,237.204,1632.896,230.821,1631.643,224.704z"/>
<path fill="#FFFFFF" d="M1707.521,213.358c0.621-10.365,3.204-18.97,7.77-25.809c4.56-6.838,10.365-12.333,17.412-16.487
	c7.047-4.142,14.976-7.092,23.789-8.851c8.813-1.76,17.678-2.646,26.588-2.646c8.084,0,16.271,0.569,24.566,1.708
	c8.288,1.14,15.859,3.369,22.699,6.686c6.838,3.318,12.441,7.928,16.791,13.842c4.357,5.9,6.535,13.727,6.535,23.471v83.648
	c0,7.257,0.404,14.202,1.24,20.833c0.822,6.635,2.279,11.612,4.356,14.93h-44.778c-0.836-2.494-1.508-5.027-2.025-7.624
	c-0.521-2.589-0.881-5.229-1.09-7.928c-7.047,7.256-15.342,12.335-24.871,15.235c-9.541,2.898-19.286,4.354-29.228,4.354
	c-7.674,0-14.829-0.931-21.465-2.799c-6.636-1.86-12.437-4.761-17.413-8.705c-4.977-3.932-8.863-8.909-11.662-14.924
	s-4.191-13.17-4.191-21.458c0-9.124,1.602-16.634,4.812-22.547c3.216-5.902,7.357-10.62,12.447-14.146
	c5.071-3.521,10.879-6.166,17.413-7.927c6.527-1.761,13.105-3.167,19.742-4.206c6.637-1.031,13.164-1.861,19.59-2.482
	c6.421-0.626,12.133-1.557,17.104-2.798c4.971-1.248,8.908-3.058,11.814-5.445c2.899-2.381,4.248-5.851,4.047-10.416
	c0-4.768-0.786-8.555-2.33-11.353c-1.559-2.799-3.637-4.977-6.225-6.528c-2.59-1.551-5.599-2.589-9.018-3.109
	c-3.425-0.519-7.104-0.777-11.036-0.777c-8.712,0-15.552,1.867-20.528,5.597c-4.976,3.729-7.875,9.946-8.705,18.66H1707.521z
	 M1809.515,246.006c-1.868,1.664-4.198,2.956-6.997,3.888c-2.806,0.938-5.808,1.709-9.017,2.33
	c-3.225,0.62-6.586,1.146-10.111,1.558c-3.521,0.418-7.048,0.937-10.568,1.558c-3.322,0.621-6.584,1.456-9.796,2.488
	c-3.216,1.039-6.015,2.438-8.396,4.197c-2.395,1.761-4.307,3.99-5.749,6.688c-1.456,2.697-2.179,6.117-2.179,10.257
	c0,3.946,0.723,7.257,2.179,9.954c1.442,2.698,3.413,4.826,5.901,6.371c2.494,1.557,5.387,2.646,8.705,3.268
	c3.312,0.619,6.737,0.937,10.266,0.937c8.706,0,15.436-1.45,20.21-4.356c4.768-2.898,8.288-6.377,10.573-10.422
	c2.28-4.039,3.68-8.129,4.191-12.277c0.52-4.147,0.786-7.465,0.786-9.946L1809.515,246.006L1809.515,246.006z"/>
<path fill="#FFFFFF" d="M1976.18,163.914v29.538h-32.337v79.615c0,7.459,1.246,12.437,3.729,14.918
	c2.488,2.494,7.471,3.734,14.93,3.734c2.482,0,4.863-0.101,7.148-0.316c2.286-0.201,4.458-0.512,6.529-0.924v34.204
	c-3.73,0.62-7.878,1.032-12.438,1.24c-4.56,0.204-9.017,0.312-13.371,0.312c-6.84,0-13.322-0.463-19.435-1.398
	c-6.114-0.938-11.504-2.749-16.164-5.439c-4.667-2.69-8.352-6.526-11.043-11.504c-2.696-4.977-4.045-11.512-4.045-19.591v-94.85
	h-26.739v-29.538h26.739v-48.198h44.157v48.198L1976.18,163.914L1976.18,163.914z"/>
<path fill="#FFFFFF" d="M1995.459,213.358c0.621-10.365,3.211-18.97,7.771-25.809c4.56-6.838,10.371-12.333,17.412-16.487
	c7.053-4.142,14.981-7.092,23.795-8.851c8.808-1.76,17.672-2.646,26.581-2.646c8.091,0,16.271,0.569,24.566,1.708
	c8.295,1.14,15.866,3.369,22.705,6.686c6.838,3.318,12.437,7.928,16.793,13.842c4.351,5.9,6.527,13.727,6.527,23.471v83.648
	c0,7.257,0.411,14.202,1.247,20.833c0.823,6.635,2.28,11.612,4.351,14.93h-44.777c-0.83-2.494-1.501-5.027-2.021-7.624
	c-0.52-2.589-0.887-5.229-1.089-7.928c-7.054,7.256-15.348,12.335-24.878,15.235c-9.542,2.898-19.279,4.354-29.227,4.354
	c-7.674,0-14.83-0.931-21.459-2.799c-6.637-1.86-12.437-4.761-17.413-8.705c-4.978-3.932-8.864-8.909-11.662-14.924
	c-2.799-6.015-4.192-13.17-4.192-21.458c0-9.124,1.596-16.634,4.812-22.547c3.217-5.902,7.357-10.62,12.441-14.146
	c5.071-3.521,10.885-6.166,17.412-7.927c6.528-1.761,13.106-3.167,19.75-4.206c6.629-1.031,13.156-1.861,19.59-2.482
	c6.42-0.626,12.125-1.557,17.096-2.798c4.977-1.248,8.915-3.058,11.814-5.445c2.899-2.381,4.255-5.851,4.047-10.416
	c0-4.768-0.779-8.555-2.33-11.353c-1.552-2.799-3.629-4.977-6.226-6.528c-2.589-1.551-5.597-2.589-9.017-3.109
	c-3.418-0.519-7.104-0.777-11.035-0.777c-8.706,0-15.545,1.867-20.522,5.597c-4.977,3.729-7.876,9.946-8.712,18.66H1995.459z
	 M2097.452,246.006c-1.868,1.664-4.198,2.956-6.997,3.888c-2.8,0.938-5.8,1.709-9.017,2.33c-3.218,0.62-6.586,1.146-10.105,1.558
	c-3.525,0.418-7.054,0.937-10.573,1.558c-3.317,0.621-6.586,1.456-9.789,2.488c-3.224,1.039-6.021,2.438-8.396,4.197
	c-2.395,1.761-4.312,3.99-5.756,6.688c-1.449,2.697-2.18,6.117-2.18,10.257c0,3.946,0.729,7.257,2.18,9.954
	c1.443,2.698,3.413,4.826,5.908,6.371c2.488,1.557,5.381,2.646,8.699,3.268c3.316,0.619,6.736,0.937,10.271,0.937
	c8.699,0,15.437-1.45,20.21-4.356c4.762-2.898,8.283-6.377,10.575-10.422c2.278-4.039,3.672-8.129,4.189-12.277
	c0.521-4.147,0.78-7.465,0.78-9.946L2097.452,246.006L2097.452,246.006z"/>
<g>
	<path fill="#FFFFFF" d="M221.114,102.071c10.422,0,19.932,0.918,28.512,2.761c8.593,1.836,15.95,4.856,22.079,9.042
		c6.129,4.191,10.878,9.763,14.26,16.716c3.368,6.952,5.065,15.538,5.065,25.757c0,11.036-2.507,20.237-7.516,27.601
		c-5.021,7.357-12.417,13.391-22.237,18.09c13.493,3.887,23.56,10.688,30.209,20.389c6.635,9.713,9.966,21.42,9.966,35.108
		c0,11.044-2.153,20.598-6.438,28.677c-4.301,8.073-10.074,14.664-17.33,19.774c-7.256,5.116-15.538,8.896-24.833,11.352
		c-9.309,2.451-18.862,3.673-28.678,3.673H118.077v-218.94H221.114z M214.978,190.69c8.586,0,15.633-2.039,21.153-6.136
		c5.521-4.084,8.282-10.733,8.282-19.932c0-5.11-0.924-9.301-2.761-12.569c-1.842-3.267-4.293-5.825-7.357-7.667
		c-3.07-1.843-6.598-3.108-10.581-3.831c-3.981-0.722-8.124-1.076-12.423-1.076h-45.076v51.211H214.978z M217.739,283.603
		c4.698,0,9.194-0.455,13.487-1.379c4.299-0.926,8.079-2.451,11.346-4.598c3.267-2.152,5.87-5.064,7.82-8.736
		c1.938-3.687,2.913-8.386,2.913-14.108c0-11.245-3.166-19.269-9.511-24.074c-6.338-4.8-14.715-7.206-25.137-7.206h-52.439v60.102
		H217.739L217.739,283.603z"/>
</g>
<circle fill="#FFFFFF" cx="202.2" cy="164.452" r="19.103"/>
</svg>
